<svg xmlns="http://www.w3.org/2000/svg" version="1.1" xmlns:xlink="http://www.w3.org/1999/xlink" xmlns:svgjs="http://svgjs.dev/svgjs" width="1000" height="1000"><style>
    #light-icon {
      display: inline;
    }
    #dark-icon {
      display: none;
    }

    @media (prefers-color-scheme: dark) {
      #light-icon {
        display: none;
      }
      #dark-icon {
        display: inline;
      }
    }
  </style><g id="light-icon"><svg xmlns="http://www.w3.org/2000/svg" version="1.1" xmlns:xlink="http://www.w3.org/1999/xlink" xmlns:svgjs="http://svgjs.dev/svgjs" width="1000" height="1000"><g clip-path="url(#SvgjsClipPath1335)"><rect width="1000" height="1000" fill="#000000"></rect><g transform="matrix(2.3529411764705883,0,0,2.3529411764705883,100,100)"><svg xmlns="http://www.w3.org/2000/svg" version="1.1" xmlns:xlink="http://www.w3.org/1999/xlink" xmlns:svgjs="http://svgjs.dev/svgjs" width="340.000000pt" height="340.000000pt"><svg version="1.0" xmlns="http://www.w3.org/2000/svg" width="340.000000pt" height="340.000000pt" viewBox="0 0 340.000000 340.000000" preserveAspectRatio="xMidYMid meet">

<g transform="translate(0.000000,340.000000) scale(0.100000,-0.100000)" fill="#FDCB7F" stroke="none">
<path d="M792 2910 c-119 -25 -230 -112 -280 -218 -24 -50 -27 -69 -27 -162 0
-99 2 -109 33 -173 41 -83 120 -165 196 -202 31 -15 56 -30 56 -34 0 -4 -16
-39 -35 -77 -44 -91 -82 -222 -96 -337 l-12 -92 -57 -60 c-130 -137 -182 -285
-159 -450 13 -96 48 -163 120 -229 113 -105 303 -172 589 -206 79 -9 492 -32
496 -27 1 1 18 29 38 62 29 48 36 70 36 110 -1 45 -4 52 -33 70 -43 27 -76 88
-61 112 10 16 27 18 130 18 l119 0 3 -34 c3 -29 -3 -40 -47 -81 -66 -62 -68
-96 -13 -190 l38 -65 134 3 c718 16 1054 167 1077 484 3 40 0 100 -6 133 -17
93 -81 213 -155 289 -62 65 -63 67 -69 134 -10 103 -51 250 -96 348 -23 48
-41 88 -41 90 0 1 25 14 55 28 71 32 163 124 197 196 78 164 47 345 -77 458
-95 87 -203 122 -321 103 -155 -24 -277 -137 -318 -295 -9 -32 -18 -61 -20
-63 -2 -2 -44 9 -93 25 -128 43 -220 57 -378 56 -151 0 -245 -15 -375 -59 -40
-14 -77 -25 -81 -25 -4 0 -10 19 -14 43 -20 120 -128 254 -238 296 -66 24
-157 33 -215 21z m400 -1511 c43 -57 32 -231 -15 -264 -46 -32 -85 32 -86 142
-1 66 10 107 37 136 20 23 40 19 64 -14z m1127 9 c51 -54 44 -225 -9 -273 -19
-18 -21 -17 -45 5 -48 45 -56 189 -14 259 22 37 41 39 68 9z"></path>
</g>
</svg></svg></g></g><defs><clipPath id="SvgjsClipPath1335"><rect width="1000" height="1000" x="0" y="0" rx="250" ry="250"></rect></clipPath></defs></svg></g><g id="dark-icon"><svg xmlns="http://www.w3.org/2000/svg" version="1.1" xmlns:xlink="http://www.w3.org/1999/xlink" xmlns:svgjs="http://svgjs.dev/svgjs" width="1000" height="1000"><g><g transform="matrix(2.9411764705882355,0,0,2.9411764705882355,-5.684341886080802e-14,-5.684341886080802e-14)"><svg xmlns="http://www.w3.org/2000/svg" version="1.1" xmlns:xlink="http://www.w3.org/1999/xlink" xmlns:svgjs="http://svgjs.dev/svgjs" width="340.000000pt" height="340.000000pt"><svg version="1.0" xmlns="http://www.w3.org/2000/svg" width="340.000000pt" height="340.000000pt" viewBox="0 0 340.000000 340.000000" preserveAspectRatio="xMidYMid meet">

<g transform="translate(0.000000,340.000000) scale(0.100000,-0.100000)" fill="#FDCB7F" stroke="none">
<path d="M792 2910 c-119 -25 -230 -112 -280 -218 -24 -50 -27 -69 -27 -162 0
-99 2 -109 33 -173 41 -83 120 -165 196 -202 31 -15 56 -30 56 -34 0 -4 -16
-39 -35 -77 -44 -91 -82 -222 -96 -337 l-12 -92 -57 -60 c-130 -137 -182 -285
-159 -450 13 -96 48 -163 120 -229 113 -105 303 -172 589 -206 79 -9 492 -32
496 -27 1 1 18 29 38 62 29 48 36 70 36 110 -1 45 -4 52 -33 70 -43 27 -76 88
-61 112 10 16 27 18 130 18 l119 0 3 -34 c3 -29 -3 -40 -47 -81 -66 -62 -68
-96 -13 -190 l38 -65 134 3 c718 16 1054 167 1077 484 3 40 0 100 -6 133 -17
93 -81 213 -155 289 -62 65 -63 67 -69 134 -10 103 -51 250 -96 348 -23 48
-41 88 -41 90 0 1 25 14 55 28 71 32 163 124 197 196 78 164 47 345 -77 458
-95 87 -203 122 -321 103 -155 -24 -277 -137 -318 -295 -9 -32 -18 -61 -20
-63 -2 -2 -44 9 -93 25 -128 43 -220 57 -378 56 -151 0 -245 -15 -375 -59 -40
-14 -77 -25 -81 -25 -4 0 -10 19 -14 43 -20 120 -128 254 -238 296 -66 24
-157 33 -215 21z m400 -1511 c43 -57 32 -231 -15 -264 -46 -32 -85 32 -86 142
-1 66 10 107 37 136 20 23 40 19 64 -14z m1127 9 c51 -54 44 -225 -9 -273 -19
-18 -21 -17 -45 5 -48 45 -56 189 -14 259 22 37 41 39 68 9z"></path>
</g>
</svg></svg></g></g></svg></g></svg>